<?xml version="1.0" encoding="utf-8"?>
<!-- Generator: Adobe Illustrator 24.0.1, SVG Export Plug-In . SVG Version: 6.00 Build 0)  -->
<svg version="1.1" id="Camada_1" xmlns="http://www.w3.org/2000/svg" xmlns:xlink="http://www.w3.org/1999/xlink" x="0px" y="0px"
	 viewBox="0 0 50 40" style="enable-background:new 0 0 50 40;" xml:space="preserve">
<style type="text/css">
	.st0{fill:#FFFFFF;}
</style>
<g>
	<path class="st0" d="M43.67,19.84c0,10.21-8.48,18.51-18.68,18.51h-0.01c-3.1,0-6.14-0.78-8.84-2.26l-9.8,2.58l2.63-9.58
		c-1.61-2.81-2.47-5.99-2.47-9.25c0-10.2,8.3-18.5,18.5-18.5c4.94,0,9.59,1.92,13.08,5.42C41.57,10.26,43.67,14.9,43.67,19.84z
		 M40.54,19.84c0.01-4.11-1.77-7.96-4.67-10.88c-2.9-2.91-6.76-4.5-10.87-4.5c-8.48,0-15.38,6.9-15.38,15.37
		c0,2.92,0.8,5.73,2.35,8.19l0.36,0.58l-1.54,5.67l5.81-1.52l0.56,0.33c2.36,1.4,5.06,2.15,7.83,2.15
		C33.47,35.23,40.54,28.32,40.54,19.84z M34.3,24.26c0.11,0.19,0.11,1.11-0.27,2.2s-2.23,2.07-3.12,2.21
		c-1.46,0.21-2.62,0.1-5.54-1.16c-4.64-2.01-7.67-6.68-7.9-6.98c-0.23-0.31-1.88-2.52-1.88-4.79s1.19-3.39,1.61-3.85
		c0.42-0.46,0.92-0.58,1.23-0.58c0.31,0,0.61,0,0.88,0.02c0.28,0.02,0.67-0.11,1.04,0.79c0.38,0.92,1.31,3.2,1.42,3.43
		c0.12,0.24,0.19,0.5,0.04,0.81c-0.88,1.76-1.83,1.7-1.35,2.53c1.78,3.08,3.57,4.14,6.29,5.49c0.46,0.24,0.74,0.2,1-0.11
		c0.28-0.32,1.16-1.35,1.46-1.81c0.31-0.47,0.62-0.4,1.04-0.24c0.43,0.15,2.71,1.27,3.16,1.5C33.88,23.93,34.19,24.05,34.3,24.26z"
		/>
</g>
</svg>
